<svg width="48" height="48" viewBox="0 0 48 48" fill="none" xmlns="http://www.w3.org/2000/svg">
<path d="M0 9C0 4.02944 4.02944 0 9 0H39C43.9706 0 48 4.02944 48 9V39C48 43.9706 43.9706 48 39 48H9C4.02944 48 0 43.9706 0 39V9Z" fill="url(#paint0_linear_24800_11135)"/>
<path d="M12.75 27.75C12.75 26.0931 14.0931 24.75 15.75 24.75H20.25C21.9069 24.75 23.25 26.0931 23.25 27.75V32.25C23.25 33.9069 21.9069 35.25 20.25 35.25H15.75C14.0931 35.25 12.75 33.9069 12.75 32.25V27.75Z" fill="white" fill-opacity="0.8"/>
<path d="M12.75 15.75C12.75 14.0931 14.0931 12.75 15.75 12.75H20.25C21.9069 12.75 23.25 14.0931 23.25 15.75V20.25C23.25 21.9069 21.9069 23.25 20.25 23.25H15.75C14.0931 23.25 12.75 21.9069 12.75 20.25V15.75Z" fill="white" fill-opacity="0.8"/>
<path d="M24.75 15.75C24.75 14.0931 26.0931 12.75 27.75 12.75H32.25C33.9069 12.75 35.25 14.0931 35.25 15.75V20.25C35.25 21.9069 33.9069 23.25 32.25 23.25H27.75C26.0931 23.25 24.75 21.9069 24.75 20.25V15.75Z" fill="white" fill-opacity="0.8"/>
<path d="M24.75 27.75C24.75 26.0931 26.0931 24.75 27.75 24.75H32.25C33.9069 24.75 35.25 26.0931 35.25 27.75V32.25C35.25 33.9069 33.9069 35.25 32.25 35.25H27.75C26.0931 35.25 24.75 33.9069 24.75 32.25V27.75Z" fill="white" fill-opacity="0.8"/>
<path d="M28.5 12C28.5 10.3431 29.8431 9 31.5 9H36C37.6569 9 39 10.3431 39 12V16.5C39 18.1569 37.6569 19.5 36 19.5H31.5C29.8431 19.5 28.5 18.1569 28.5 16.5V12Z" fill="white" fill-opacity="0.8"/>
<path d="M9 12C9 10.3431 10.3431 9 12 9H16.5C18.1569 9 19.5 10.3431 19.5 12V16.5C19.5 18.1569 18.1569 19.5 16.5 19.5H12C10.3431 19.5 9 18.1569 9 16.5V12Z" fill="white" fill-opacity="0.8"/>
<path d="M9 31.5C9 29.8431 10.3431 28.5 12 28.5H16.5C18.1569 28.5 19.5 29.8431 19.5 31.5V36C19.5 37.6569 18.1569 39 16.5 39H12C10.3431 39 9 37.6569 9 36V31.5Z" fill="white" fill-opacity="0.8"/>
<path d="M28.5 31.5C28.5 29.8431 29.8431 28.5 31.5 28.5H36C37.6569 28.5 39 29.8431 39 31.5V36C39 37.6569 37.6569 39 36 39H31.5C29.8431 39 28.5 37.6569 28.5 36V31.5Z" fill="white" fill-opacity="0.8"/>
<defs>
<linearGradient id="paint0_linear_24800_11135" x1="24" y1="7.15256e-07" x2="24" y2="48" gradientUnits="userSpaceOnUse">
<stop stop-color="#FF8947"/>
<stop offset="1" stop-color="#FFB424"/>
</linearGradient>
</defs>
</svg>
