<svg width="49" height="48" viewBox="0 0 49 48" fill="none" xmlns="http://www.w3.org/2000/svg">
<path d="M0.599609 9C0.599609 4.02944 4.62905 0 9.59961 0H39.5996C44.5702 0 48.5996 4.02944 48.5996 9V39C48.5996 43.9706 44.5702 48 39.5996 48H9.59961C4.62905 48 0.599609 43.9706 0.599609 39V9Z" fill="url(#paint0_linear_24800_11100)"/>
<path d="M14.0996 12C14.0996 10.3431 15.4428 9 17.0996 9C18.7565 9 20.0996 10.3431 20.0996 12V36C20.0996 37.6569 18.7565 39 17.0996 39C15.4428 39 14.0996 37.6569 14.0996 36V12Z" fill="white" fill-opacity="0.8"/>
<path d="M29.0996 12C29.0996 10.3431 30.4428 9 32.0996 9C33.7565 9 35.0996 10.3431 35.0996 12V36C35.0996 37.6569 33.7565 39 32.0996 39C30.4428 39 29.0996 37.6569 29.0996 36V12Z" fill="white" fill-opacity="0.8"/>
<g filter="url(#filter0_d_24800_11100)">
<path d="M23.0996 18C23.0996 21.3137 20.4133 24 17.0996 24C13.7859 24 11.0996 21.3137 11.0996 18C11.0996 14.6863 13.7859 12 17.0996 12C20.4133 12 23.0996 14.6863 23.0996 18Z" fill="white" fill-opacity="0.8"/>
</g>
<g filter="url(#filter1_d_24800_11100)">
<path d="M20.0996 18C20.0996 19.6569 18.7565 21 17.0996 21C15.4428 21 14.0996 19.6569 14.0996 18C14.0996 16.3431 15.4428 15 17.0996 15C18.7565 15 20.0996 16.3431 20.0996 18Z" fill="white" fill-opacity="0.8"/>
</g>
<g filter="url(#filter2_d_24800_11100)">
<path d="M38.0996 30C38.0996 33.3137 35.4133 36 32.0996 36C28.7859 36 26.0996 33.3137 26.0996 30C26.0996 26.6863 28.7859 24 32.0996 24C35.4133 24 38.0996 26.6863 38.0996 30Z" fill="white" fill-opacity="0.8"/>
</g>
<g filter="url(#filter3_d_24800_11100)">
<path d="M35.0996 30C35.0996 31.6569 33.7565 33 32.0996 33C30.4428 33 29.0996 31.6569 29.0996 30C29.0996 28.3431 30.4428 27 32.0996 27C33.7565 27 35.0996 28.3431 35.0996 30Z" fill="white" fill-opacity="0.8"/>
</g>
<defs>
<filter id="filter0_d_24800_11100" x="9.09961" y="11" width="16" height="16" filterUnits="userSpaceOnUse" color-interpolation-filters="sRGB">
<feFlood flood-opacity="0" result="BackgroundImageFix"/>
<feColorMatrix in="SourceAlpha" type="matrix" values="0 0 0 0 0 0 0 0 0 0 0 0 0 0 0 0 0 0 127 0" result="hardAlpha"/>
<feOffset dy="1"/>
<feGaussianBlur stdDeviation="1"/>
<feColorMatrix type="matrix" values="0 0 0 0 0 0 0 0 0 0 0 0 0 0 0 0 0 0 0.2 0"/>
<feBlend mode="normal" in2="BackgroundImageFix" result="effect1_dropShadow_24800_11100"/>
<feBlend mode="normal" in="SourceGraphic" in2="effect1_dropShadow_24800_11100" result="shape"/>
</filter>
<filter id="filter1_d_24800_11100" x="12.0996" y="14" width="10" height="10" filterUnits="userSpaceOnUse" color-interpolation-filters="sRGB">
<feFlood flood-opacity="0" result="BackgroundImageFix"/>
<feColorMatrix in="SourceAlpha" type="matrix" values="0 0 0 0 0 0 0 0 0 0 0 0 0 0 0 0 0 0 127 0" result="hardAlpha"/>
<feOffset dy="1"/>
<feGaussianBlur stdDeviation="1"/>
<feColorMatrix type="matrix" values="0 0 0 0 0 0 0 0 0 0 0 0 0 0 0 0 0 0 0.2 0"/>
<feBlend mode="normal" in2="BackgroundImageFix" result="effect1_dropShadow_24800_11100"/>
<feBlend mode="normal" in="SourceGraphic" in2="effect1_dropShadow_24800_11100" result="shape"/>
</filter>
<filter id="filter2_d_24800_11100" x="24.0996" y="23" width="16" height="16" filterUnits="userSpaceOnUse" color-interpolation-filters="sRGB">
<feFlood flood-opacity="0" result="BackgroundImageFix"/>
<feColorMatrix in="SourceAlpha" type="matrix" values="0 0 0 0 0 0 0 0 0 0 0 0 0 0 0 0 0 0 127 0" result="hardAlpha"/>
<feOffset dy="1"/>
<feGaussianBlur stdDeviation="1"/>
<feColorMatrix type="matrix" values="0 0 0 0 0 0 0 0 0 0 0 0 0 0 0 0 0 0 0.2 0"/>
<feBlend mode="normal" in2="BackgroundImageFix" result="effect1_dropShadow_24800_11100"/>
<feBlend mode="normal" in="SourceGraphic" in2="effect1_dropShadow_24800_11100" result="shape"/>
</filter>
<filter id="filter3_d_24800_11100" x="27.0996" y="26" width="10" height="10" filterUnits="userSpaceOnUse" color-interpolation-filters="sRGB">
<feFlood flood-opacity="0" result="BackgroundImageFix"/>
<feColorMatrix in="SourceAlpha" type="matrix" values="0 0 0 0 0 0 0 0 0 0 0 0 0 0 0 0 0 0 127 0" result="hardAlpha"/>
<feOffset dy="1"/>
<feGaussianBlur stdDeviation="1"/>
<feColorMatrix type="matrix" values="0 0 0 0 0 0 0 0 0 0 0 0 0 0 0 0 0 0 0.2 0"/>
<feBlend mode="normal" in2="BackgroundImageFix" result="effect1_dropShadow_24800_11100"/>
<feBlend mode="normal" in="SourceGraphic" in2="effect1_dropShadow_24800_11100" result="shape"/>
</filter>
<linearGradient id="paint0_linear_24800_11100" x1="24.5996" y1="7.15256e-07" x2="24.5996" y2="48" gradientUnits="userSpaceOnUse">
<stop stop-color="#FF8947"/>
<stop offset="1" stop-color="#FFB424"/>
</linearGradient>
</defs>
</svg>
