<svg width="49" height="48" viewBox="0 0 49 48" fill="none" xmlns="http://www.w3.org/2000/svg">
<path d="M0.400391 9C0.400391 4.02944 4.42983 0 9.40039 0H39.4004C44.371 0 48.4004 4.02944 48.4004 9V39C48.4004 43.9706 44.371 48 39.4004 48H9.40039C4.42983 48 0.400391 43.9706 0.400391 39V9Z" fill="url(#paint0_linear_24800_11132)"/>
<g filter="url(#filter0_dd_24800_11132)">
<path d="M36.4004 24C36.4004 30.6274 31.0278 36 24.4004 36C17.773 36 12.4004 30.6274 12.4004 24C12.4004 17.3726 17.773 12 24.4004 12C31.0278 12 36.4004 17.3726 36.4004 24Z" fill="white" fill-opacity="0.8"/>
</g>
<g filter="url(#filter1_dd_24800_11132)">
<path d="M33.4004 24C33.4004 28.9706 29.371 33 24.4004 33C19.4298 33 15.4004 28.9706 15.4004 24C15.4004 19.0294 19.4298 15 24.4004 15C29.371 15 33.4004 19.0294 33.4004 24Z" fill="white" fill-opacity="0.8"/>
</g>
<path d="M39.4004 24C39.4004 26.9667 38.5207 29.8668 36.8724 32.3336C35.2242 34.8003 32.8815 36.7229 30.1406 37.8582C27.3998 38.9935 24.3838 39.2906 21.474 38.7118C18.5643 38.133 15.8916 36.7044 13.7938 34.6066C11.696 32.5088 10.2674 29.8361 9.68861 26.9264C9.10984 24.0166 9.40689 21.0006 10.5422 18.2597C11.6775 15.5189 13.6001 13.1762 16.0668 11.528C18.5336 9.87974 21.4337 9 24.4004 9L24.4004 24L39.4004 24Z" fill="white" fill-opacity="0.8"/>
<g filter="url(#filter2_dd_24800_11132)">
<path d="M36.4009 24.0112C36.3987 26.3846 35.6928 28.704 34.3725 30.6762C33.0521 32.6484 31.1766 34.1848 28.9831 35.0911C26.7895 35.9974 24.3765 36.2328 22.0492 35.7677C19.7218 35.3026 17.5846 34.1578 15.9079 32.478C14.2312 30.7983 13.0903 28.6591 12.6293 26.3309C12.1684 24.0027 12.4082 21.5901 13.3185 19.3982C14.2287 17.2063 15.7685 15.3335 17.743 14.0168C19.7176 12.7 22.0383 11.9983 24.4117 12.0004L24.4009 24.0004L36.4009 24.0112Z" fill="white" fill-opacity="0.8"/>
</g>
<defs>
<filter id="filter0_dd_24800_11132" x="8.40039" y="11" width="32" height="32" filterUnits="userSpaceOnUse" color-interpolation-filters="sRGB">
<feFlood flood-opacity="0" result="BackgroundImageFix"/>
<feColorMatrix in="SourceAlpha" type="matrix" values="0 0 0 0 0 0 0 0 0 0 0 0 0 0 0 0 0 0 127 0" result="hardAlpha"/>
<feOffset dy="3"/>
<feGaussianBlur stdDeviation="2"/>
<feColorMatrix type="matrix" values="0 0 0 0 0 0 0 0 0 0 0 0 0 0 0 0 0 0 0.2 0"/>
<feBlend mode="normal" in2="BackgroundImageFix" result="effect1_dropShadow_24800_11132"/>
<feColorMatrix in="SourceAlpha" type="matrix" values="0 0 0 0 0 0 0 0 0 0 0 0 0 0 0 0 0 0 127 0" result="hardAlpha"/>
<feOffset dy="1"/>
<feGaussianBlur stdDeviation="1"/>
<feColorMatrix type="matrix" values="0 0 0 0 0 0 0 0 0 0 0 0 0 0 0 0 0 0 0.1 0"/>
<feBlend mode="normal" in2="effect1_dropShadow_24800_11132" result="effect2_dropShadow_24800_11132"/>
<feBlend mode="normal" in="SourceGraphic" in2="effect2_dropShadow_24800_11132" result="shape"/>
</filter>
<filter id="filter1_dd_24800_11132" x="13.4004" y="14" width="22" height="22" filterUnits="userSpaceOnUse" color-interpolation-filters="sRGB">
<feFlood flood-opacity="0" result="BackgroundImageFix"/>
<feColorMatrix in="SourceAlpha" type="matrix" values="0 0 0 0 0 0 0 0 0 0 0 0 0 0 0 0 0 0 127 0" result="hardAlpha"/>
<feOffset dy="1"/>
<feGaussianBlur stdDeviation="1"/>
<feColorMatrix type="matrix" values="0 0 0 0 0 0 0 0 0 0 0 0 0 0 0 0 0 0 0.2 0"/>
<feBlend mode="normal" in2="BackgroundImageFix" result="effect1_dropShadow_24800_11132"/>
<feColorMatrix in="SourceAlpha" type="matrix" values="0 0 0 0 0 0 0 0 0 0 0 0 0 0 0 0 0 0 127 0" result="hardAlpha"/>
<feOffset dy="1"/>
<feGaussianBlur stdDeviation="0.5"/>
<feColorMatrix type="matrix" values="0 0 0 0 0 0 0 0 0 0 0 0 0 0 0 0 0 0 0.1 0"/>
<feBlend mode="normal" in2="effect1_dropShadow_24800_11132" result="effect2_dropShadow_24800_11132"/>
<feBlend mode="normal" in="SourceGraphic" in2="effect2_dropShadow_24800_11132" result="shape"/>
</filter>
<filter id="filter2_dd_24800_11132" x="10.4004" y="11" width="28" height="28" filterUnits="userSpaceOnUse" color-interpolation-filters="sRGB">
<feFlood flood-opacity="0" result="BackgroundImageFix"/>
<feColorMatrix in="SourceAlpha" type="matrix" values="0 0 0 0 0 0 0 0 0 0 0 0 0 0 0 0 0 0 127 0" result="hardAlpha"/>
<feOffset dy="1"/>
<feGaussianBlur stdDeviation="1"/>
<feColorMatrix type="matrix" values="0 0 0 0 0 0 0 0 0 0 0 0 0 0 0 0 0 0 0.2 0"/>
<feBlend mode="normal" in2="BackgroundImageFix" result="effect1_dropShadow_24800_11132"/>
<feColorMatrix in="SourceAlpha" type="matrix" values="0 0 0 0 0 0 0 0 0 0 0 0 0 0 0 0 0 0 127 0" result="hardAlpha"/>
<feOffset dy="1"/>
<feGaussianBlur stdDeviation="0.5"/>
<feColorMatrix type="matrix" values="0 0 0 0 0 0 0 0 0 0 0 0 0 0 0 0 0 0 0.1 0"/>
<feBlend mode="normal" in2="effect1_dropShadow_24800_11132" result="effect2_dropShadow_24800_11132"/>
<feBlend mode="normal" in="SourceGraphic" in2="effect2_dropShadow_24800_11132" result="shape"/>
</filter>
<linearGradient id="paint0_linear_24800_11132" x1="24.4004" y1="0" x2="24.4004" y2="48" gradientUnits="userSpaceOnUse">
<stop stop-color="#1A9DFB"/>
<stop offset="1" stop-color="#47D4F0"/>
</linearGradient>
</defs>
</svg>
