<svg width="48" height="48" viewBox="0 0 48 48" fill="none" xmlns="http://www.w3.org/2000/svg">
<path d="M0 9C0 4.02944 4.02944 0 9 0H39C43.9706 0 48 4.02944 48 9V39C48 43.9706 43.9706 48 39 48H9C4.02944 48 0 43.9706 0 39V9Z" fill="url(#paint0_linear_24800_11097)"/>
<path d="M21.4282 14.6097C23.8178 16.9992 23.6104 19.8446 21.7275 21.7275C19.8446 23.6104 16.9992 23.8178 14.6097 21.4282C12.9239 19.7424 12.8525 16.2774 12.9566 14.3826C12.9994 13.6042 13.6042 12.9994 14.3826 12.9566C16.2774 12.8525 19.7424 12.9239 21.4282 14.6097Z" fill="white" fill-opacity="0.8"/>
<path d="M26.5723 33.3908C24.1828 31.0013 24.3901 28.1559 26.273 26.273C28.1559 24.3901 31.0013 24.1828 33.3908 26.5723C35.0766 28.2581 35.1481 31.7231 35.0439 33.6179C35.0011 34.3963 34.3963 35.0011 33.6179 35.0439C31.7231 35.1481 28.2581 35.0766 26.5723 33.3908Z" fill="white" fill-opacity="0.8"/>
<path d="M14.6097 26.5723C16.9992 24.1828 19.8446 24.3901 21.7275 26.273C23.6104 28.1559 23.8178 31.0013 21.4282 33.3908C19.7424 35.0766 16.2774 35.1481 14.3826 35.0439C13.6042 35.0011 12.9994 34.3963 12.9566 33.6179C12.8525 31.7231 12.9239 28.2581 14.6097 26.5723Z" fill="white" fill-opacity="0.8"/>
<path d="M33.3908 21.4282C31.0013 23.8178 28.1559 23.6104 26.273 21.7275C24.3901 19.8446 24.1828 16.9992 26.5723 14.6097C28.2581 12.9239 31.7231 12.8525 33.6179 12.9566C34.3963 12.9994 35.0011 13.6042 35.0439 14.3826C35.1481 16.2774 35.0766 19.7424 33.3908 21.4282Z" fill="white" fill-opacity="0.8"/>
<path d="M28.8206 15.541C28.8206 18.9203 26.662 20.7857 23.9992 20.7857C21.3364 20.7857 19.1777 18.9203 19.1777 15.541C19.1777 13.157 21.5773 10.6563 22.9908 9.39012C23.5715 8.86996 24.4268 8.86996 25.0075 9.39013C26.421 10.6563 28.8206 13.157 28.8206 15.541Z" fill="white" fill-opacity="0.8"/>
<path d="M19.1777 32.4586C19.1777 29.0792 21.3364 27.2139 23.9992 27.2139C26.662 27.2139 28.8206 29.0792 28.8206 32.4586C28.8206 34.8426 26.421 37.3433 25.0075 38.6095C24.4268 39.1296 23.5715 39.1296 22.9908 38.6095C21.5773 37.3433 19.1777 34.8426 19.1777 32.4586Z" fill="white" fill-opacity="0.8"/>
<path d="M15.541 19.1787C18.9203 19.1787 20.7857 21.3373 20.7857 24.0001C20.7857 26.6629 18.9203 28.8216 15.541 28.8216C13.157 28.8216 10.6563 26.422 9.39012 25.0085C8.86996 24.4278 8.86996 23.5725 9.39013 22.9918C10.6563 21.5783 13.157 19.1787 15.541 19.1787Z" fill="white" fill-opacity="0.8"/>
<path d="M32.4596 28.8216C29.0802 28.8216 27.2148 26.6629 27.2148 24.0001C27.2148 21.3373 29.0802 19.1787 32.4596 19.1787C34.8436 19.1787 37.3442 21.5783 38.6104 22.9918C39.1306 23.5725 39.1306 24.4278 38.6104 25.0085C37.3442 26.422 34.8436 28.8216 32.4596 28.8216Z" fill="white" fill-opacity="0.8"/>
<defs>
<linearGradient id="paint0_linear_24800_11097" x1="24" y1="0" x2="24" y2="48" gradientUnits="userSpaceOnUse">
<stop stop-color="#FD9240"/>
<stop offset="1" stop-color="#FC5950"/>
</linearGradient>
</defs>
</svg>
